<svg width="100" height="100" viewBox="0 0 24 24" xmlns="http://www.w3.org/2000/svg">
  <defs>
    <pattern id="imgPattern" patternUnits="userSpaceOnUse" width="24" height="24">
      <image href="https://condominioplayaiki.com/wp-content/uploads/2024/04/condominioplayaiki_1.webp" x="0" y="0" width="24" height="24" />
    </pattern>
  </defs>
  <path d="M22.675 0h-21.35c-.733 0-1.325.592-1.325 1.325v21.351c0 .733.592 1.324 1.325 1.324h11.495v-9.293h-3.128v-3.622h3.128v-2.671c0-3.1 1.893-4.788 4.658-4.788 1.325 0 2.464.099 2.795.143v3.24l-1.918.001c-1.504 0-1.794.717-1.794 1.764v2.312h3.587l-.467 3.622h-3.12v9.293h6.115c.733 0 1.325-.592 1.325-1.325v-21.35c0-.733-.592-1.325-1.325-1.325z" fill="url(#imgPattern)" />
</svg>