<svg width="40" height="40" viewBox="0 0 24 24" xmlns="http://www.w3.org/2000/svg">
  <defs>
    <pattern id="imgPattern" patternUnits="userSpaceOnUse" width="24" height="24">
      <image href="https://condominioplayaiki.com/wp-content/uploads/2024/04/condominioplayaiki_1.webp" x="0" y="0" width="24" height="24" />
    </pattern>
  </defs>
  <path d="M12 2.163c3.204 0 3.584.012 4.85.07 1.366.062 2.633.33 3.608 1.305.975.975 1.243 2.242 1.305 3.608.058 1.266.07 1.646.07 4.85s-.012 3.584-.07 4.85c-.062 1.366-.33 2.633-1.305 3.608-.975.975-2.242 1.243-3.608 1.305-1.266.058-1.646.07-4.85.07s-3.584-.012-4.85-.07c-1.366-.062-2.633-.33-3.608-1.305-.975-.975-1.243-2.242-1.305-3.608-.058-1.266-.07-1.646-.07-4.85s.012-3.584.07-4.85c.062-1.366.33-2.633 1.305-3.608.975-.975 2.242-1.243 3.608-1.305 1.266-.058 1.646-.07 4.85-.07zm0-2.163c-3.259 0-3.667.014-4.947.072-1.29.059-2.188.272-2.963.578-.78.307-1.438.71-2.092 1.364-.653.654-1.057 1.311-1.364 2.092-.306.775-.519 1.673-.578 2.963-.058 1.28-.072 1.688-.072 4.947s.014 3.667.072 4.947c.059 1.29.272 2.188.578 2.963.307.78.71 1.438 1.364 2.092.654.653 1.311 1.057 2.092 1.364.775.306 1.673.519 2.963.578 1.28.058 1.688.072 4.947.072s3.667-.014 4.947-.072c1.29-.059 2.188-.272 2.963-.578.78-.307 1.438-.71 2.092-1.364.653-.654 1.057-1.311 1.364-2.092.306-.775.519-1.673.578-2.963.058-1.28.072-1.688.072-4.947s-.014-3.667-.072-4.947c-.059-1.29-.272-2.188-.578-2.963-.307-.78-.71-1.438-1.364-2.092-.654-.653-1.311-1.057-2.092-1.364-.775-.306-1.673-.519-2.963-.578-1.28-.058-1.688-.072-4.947-.072zm0 5.838c-3.258 0-5.899 2.641-5.899 5.899s2.641 5.899 5.899 5.899 5.899-2.641 5.899-5.899-2.641-5.899-5.899-5.899zm0 9.746c-2.118 0-3.847-1.729-3.847-3.847s1.729-3.847 3.847-3.847 3.847 1.729 3.847 3.847-1.729 3.847-3.847 3.847zm6.406-10.324c-.796 0-1.441-.645-1.441-1.441s.645-1.441 1.441-1.441 1.441.645 1.441 1.441-.645 1.441-1.441 1.441z" fill="url(#imgPattern)" />
</svg>